<svg width="24" height="24" viewBox="0 0 24 24" fill="none" xmlns="http://www.w3.org/2000/svg">
<path fill-rule="evenodd" clip-rule="evenodd" d="M19.0884 19.0537C15.1927 22.9685 8.86111 22.984 4.9463 19.0884C1.03149 15.1927 1.01596 8.86111 4.91161 4.9463C8.80726 1.03149 15.1389 1.01596 19.0537 4.91161C22.9685 8.80726 22.984 15.1389 19.0884 19.0537ZM20.5061 20.4644C15.8313 25.1622 8.23333 25.1809 3.53556 20.5061C-1.16221 15.8313 -1.18085 8.23333 3.49393 3.53556C8.16871 -1.16221 15.7667 -1.18085 20.4644 3.49393C25.1622 8.16871 25.1809 15.7667 20.5061 20.4644ZM6.83283 17.1524C6.4969 16.82 6.49557 16.2797 6.82987 15.9457L10.6633 12.1153L6.60823 8.10294C6.2723 7.77056 6.27098 7.23033 6.60527 6.89631C6.93956 6.56228 7.48288 6.56095 7.8188 6.89333L11.8739 10.9057L16.1782 6.60482C16.5125 6.27079 17.0558 6.26946 17.3917 6.60185C17.7277 6.93424 17.729 7.47448 17.3947 7.80852L13.0904 12.1094L17.2131 16.1886C17.5491 16.5209 17.5504 17.0612 17.2161 17.3952C16.8818 17.7292 16.3385 17.7306 16.0026 17.3982L11.8799 13.319L8.0464 17.1494C7.7121 17.4834 7.16877 17.4848 6.83283 17.1524Z" fill="white"/>
</svg>
