<svg width="433" height="472" viewBox="0 0 433 472" fill="none" xmlns="http://www.w3.org/2000/svg">
<g filter="url(#filter0_i)">
<g filter="url(#filter1_d)">
<mask id="path-1-inside-1" fill="white">
<path fill-rule="evenodd" clip-rule="evenodd" d="M4.24844 161.144C4.40003 161.071 4.49655 160.918 4.49689 160.749L4.57742 121.247C4.60561 107.42 12.5514 94.8303 25.0215 88.8552L201.106 4.48475C210.979 -0.245534 222.467 -0.226807 232.324 4.53565L408.031 89.4308C420.491 95.4511 428.397 108.081 428.369 121.919L428 303.074C428 303.144 427.959 303.208 427.896 303.238V303.238C427.833 303.269 427.793 303.333 427.793 303.403V342.543C427.793 356.376 419.866 368.986 407.401 374.984L231.505 459.617C221.64 464.363 210.152 464.363 200.288 459.617L24.3913 374.984C11.9261 368.986 4 356.376 4 342.543V161.539C4 161.37 4.09657 161.217 4.24844 161.144V161.144Z"/>
</mask>
<path fill-rule="evenodd" clip-rule="evenodd" d="M4.24844 161.144C4.40003 161.071 4.49655 160.918 4.49689 160.749L4.57742 121.247C4.60561 107.42 12.5514 94.8303 25.0215 88.8552L201.106 4.48475C210.979 -0.245534 222.467 -0.226807 232.324 4.53565L408.031 89.4308C420.491 95.4511 428.397 108.081 428.369 121.919L428 303.074C428 303.144 427.959 303.208 427.896 303.238V303.238C427.833 303.269 427.793 303.333 427.793 303.403V342.543C427.793 356.376 419.866 368.986 407.401 374.984L231.505 459.617C221.64 464.363 210.152 464.363 200.288 459.617L24.3913 374.984C11.9261 368.986 4 356.376 4 342.543V161.539C4 161.37 4.09657 161.217 4.24844 161.144V161.144Z" fill="white"/>
<path d="M231.505 459.617L228.036 452.408L231.505 459.617ZM200.288 459.617L203.756 452.408L200.288 459.617ZM428 303.074L420 303.058L428 303.074ZM201.106 4.48475L197.649 -2.72983L201.106 4.48475ZM232.324 4.53565L228.843 11.7389L232.324 4.53565ZM12.4969 160.766L12.5774 121.264L-3.42257 121.231L-3.50309 160.733L12.4969 160.766ZM28.4784 96.0698L204.563 11.6993L197.649 -2.72983L21.5647 81.6407L28.4784 96.0698ZM228.843 11.7389L404.55 96.6341L411.511 82.2276L235.804 -2.66762L228.843 11.7389ZM420.369 121.903L420 303.058L436 303.09L436.369 121.935L420.369 121.903ZM419.793 303.403V342.543H435.793V303.403H419.793ZM403.933 367.775L228.036 452.408L234.974 466.826L410.87 382.192L403.933 367.775ZM203.756 452.408L27.8599 367.775L20.9227 382.192L196.819 466.826L203.756 452.408ZM12 342.543V161.539H-4V342.543H12ZM12 161.539C12 164.444 10.3353 167.093 7.71711 168.353L0.779778 153.935C-2.14215 155.341 -4 158.296 -4 161.539H12ZM27.8599 367.775C18.1648 363.11 12 353.302 12 342.543H-4C-4 359.45 5.68747 374.862 20.9227 382.192L27.8599 367.775ZM228.036 452.408C220.364 456.099 211.429 456.099 203.756 452.408L196.819 466.826C208.876 472.627 222.917 472.627 234.974 466.826L228.036 452.408ZM419.793 342.543C419.793 353.302 413.628 363.11 403.933 367.775L410.87 382.192C426.105 374.862 435.793 359.45 435.793 342.543H419.793ZM424.439 296.024C421.6 297.384 419.793 300.254 419.793 303.403H435.793C435.793 306.411 434.066 309.153 431.353 310.453L424.439 296.024ZM420 303.058C420.006 300.054 421.732 297.321 424.439 296.024L431.353 310.453C434.187 309.095 435.993 306.234 436 303.09L420 303.058ZM404.55 96.6341C414.242 101.317 420.391 111.14 420.369 121.903L436.369 121.935C436.404 105.022 426.74 89.5857 411.511 82.2276L404.55 96.6341ZM204.563 11.6993C212.242 8.02022 221.177 8.03479 228.843 11.7389L235.804 -2.66762C223.757 -8.4884 209.716 -8.51129 197.649 -2.72983L204.563 11.6993ZM12.5774 121.264C12.5993 110.509 18.7794 100.717 28.4784 96.0698L21.5647 81.6407C6.32341 88.9435 -3.38811 104.331 -3.42257 121.231L12.5774 121.264ZM-3.50309 160.733C-3.49718 157.833 -1.83334 155.192 0.779778 153.935L7.71711 168.353C10.6334 166.949 12.4903 164.002 12.4969 160.766L-3.50309 160.733Z" fill="white" mask="url(#path-1-inside-1)"/>
</g>
<g filter="url(#filter2_ddi)">
<mask id="path-3-inside-2" fill="white">
<path fill-rule="evenodd" clip-rule="evenodd" d="M123 139C98.6995 139 79 158.699 79 183V253.462C79 268.158 86.2055 281.172 97.2765 289.163L82.1494 303.334C80.41 304.963 80.1898 307.806 81.6575 309.684C96.3347 328.462 122.333 330.476 139.727 314.182L157.575 297.462H309C333.3 297.462 353 277.762 353 253.462V183C353 158.699 333.3 139 309 139H123Z"/>
</mask>
<path fill-rule="evenodd" clip-rule="evenodd" d="M123 139C98.6995 139 79 158.699 79 183V253.462C79 268.158 86.2055 281.172 97.2765 289.163L82.1494 303.334C80.41 304.963 80.1898 307.806 81.6575 309.684C96.3347 328.462 122.333 330.476 139.727 314.182L157.575 297.462H309C333.3 297.462 353 277.762 353 253.462V183C353 158.699 333.3 139 309 139H123Z" fill="white"/>
<path d="M97.2765 289.163L98.6438 290.623L100.416 288.963L98.447 287.541L97.2765 289.163ZM82.1494 303.334L80.782 301.874L80.782 301.874L82.1494 303.334ZM81.6575 309.684L80.0817 310.916L80.0817 310.916L81.6575 309.684ZM139.727 314.182L141.094 315.641L141.094 315.641L139.727 314.182ZM157.575 297.462V295.462H156.785L156.208 296.002L157.575 297.462ZM81 183C81 159.804 99.804 141 123 141V137C97.5949 137 77 157.595 77 183H81ZM81 253.462V183H77V253.462H81ZM98.447 287.541C87.8745 279.91 81 267.489 81 253.462H77C77 268.828 84.5365 282.434 96.106 290.785L98.447 287.541ZM83.5167 304.794L98.6438 290.623L95.9092 287.704L80.782 301.874L83.5167 304.794ZM83.2333 308.453C82.4032 307.391 82.533 305.715 83.5167 304.794L80.782 301.874C78.287 304.212 77.9764 308.222 80.0817 310.916L83.2333 308.453ZM138.359 312.722C121.823 328.213 97.1868 326.305 83.2333 308.453L80.0817 310.916C95.4825 330.62 122.843 332.739 141.094 315.641L138.359 312.722ZM156.208 296.002L138.359 312.722L141.094 315.641L158.942 298.921L156.208 296.002ZM309 295.462H157.575V299.462H309V295.462ZM351 253.462C351 276.658 332.196 295.462 309 295.462V299.462C334.405 299.462 355 278.867 355 253.462H351ZM351 183V253.462H355V183H351ZM309 141C332.196 141 351 159.804 351 183H355C355 157.595 334.405 137 309 137V141ZM123 141H309V137H123V141Z" fill="white" mask="url(#path-3-inside-2)"/>
</g>
<g filter="url(#filter3_dd)">
<rect x="119" y="184" width="194" height="21" rx="10.5" fill="white"/>
<rect x="119.5" y="184.5" width="193" height="20" rx="10" stroke="white"/>
</g>
<g filter="url(#filter4_dd)">
<rect x="119" y="238" width="194" height="21" rx="10.5" fill="white"/>
<rect x="119.5" y="238.5" width="193" height="20" rx="10" stroke="white"/>
</g>
<g filter="url(#filter5_dd)">
<rect x="119" y="211" width="93" height="21" rx="10.5" fill="white"/>
<rect x="119.5" y="211.5" width="92" height="20" rx="10" stroke="white"/>
</g>
<g filter="url(#filter6_dd)">
<rect x="220" y="211" width="47" height="21" rx="10.5" fill="white"/>
<rect x="220.5" y="211.5" width="46" height="20" rx="10" stroke="white"/>
</g>
</g>
<defs>
<filter id="filter0_i" x="4" y="0.950378" width="424.369" height="466.226" filterUnits="userSpaceOnUse" color-interpolation-filters="sRGB">
<feFlood flood-opacity="0" result="BackgroundImageFix"/>
<feBlend mode="normal" in="SourceGraphic" in2="BackgroundImageFix" result="shape"/>
<feColorMatrix in="SourceAlpha" type="matrix" values="0 0 0 0 0 0 0 0 0 0 0 0 0 0 0 0 0 0 127 0" result="hardAlpha"/>
<feOffset dy="4"/>
<feGaussianBlur stdDeviation="2"/>
<feComposite in2="hardAlpha" operator="arithmetic" k2="-1" k3="1"/>
<feColorMatrix type="matrix" values="0 0 0 0 0 0 0 0 0 0 0 0 0 0 0 0 0 0 0.25 0"/>
<feBlend mode="normal" in2="shape" result="effect1_innerShadow"/>
</filter>
<filter id="filter1_d" x="0" y="0.950378" width="432.369" height="470.226" filterUnits="userSpaceOnUse" color-interpolation-filters="sRGB">
<feFlood flood-opacity="0" result="BackgroundImageFix"/>
<feColorMatrix in="SourceAlpha" type="matrix" values="0 0 0 0 0 0 0 0 0 0 0 0 0 0 0 0 0 0 127 0"/>
<feOffset dy="4"/>
<feGaussianBlur stdDeviation="2"/>
<feColorMatrix type="matrix" values="0 0 0 0 0 0 0 0 0 0 0 0 0 0 0 0 0 0 0.25 0"/>
<feBlend mode="normal" in2="BackgroundImageFix" result="effect1_dropShadow"/>
<feBlend mode="normal" in="SourceGraphic" in2="effect1_dropShadow" result="shape"/>
</filter>
<filter id="filter2_ddi" x="75" y="139" width="282" height="194.198" filterUnits="userSpaceOnUse" color-interpolation-filters="sRGB">
<feFlood flood-opacity="0" result="BackgroundImageFix"/>
<feColorMatrix in="SourceAlpha" type="matrix" values="0 0 0 0 0 0 0 0 0 0 0 0 0 0 0 0 0 0 127 0"/>
<feOffset dy="4"/>
<feGaussianBlur stdDeviation="2"/>
<feColorMatrix type="matrix" values="0 0 0 0 0 0 0 0 0 0 0 0 0 0 0 0 0 0 0.4 0"/>
<feBlend mode="normal" in2="BackgroundImageFix" result="effect1_dropShadow"/>
<feColorMatrix in="SourceAlpha" type="matrix" values="0 0 0 0 0 0 0 0 0 0 0 0 0 0 0 0 0 0 127 0"/>
<feOffset dy="4"/>
<feGaussianBlur stdDeviation="2"/>
<feColorMatrix type="matrix" values="0 0 0 0 0 0 0 0 0 0 0 0 0 0 0 0 0 0 0.25 0"/>
<feBlend mode="normal" in2="effect1_dropShadow" result="effect2_dropShadow"/>
<feBlend mode="normal" in="SourceGraphic" in2="effect2_dropShadow" result="shape"/>
<feColorMatrix in="SourceAlpha" type="matrix" values="0 0 0 0 0 0 0 0 0 0 0 0 0 0 0 0 0 0 127 0" result="hardAlpha"/>
<feOffset dy="4"/>
<feGaussianBlur stdDeviation="2"/>
<feComposite in2="hardAlpha" operator="arithmetic" k2="-1" k3="1"/>
<feColorMatrix type="matrix" values="0 0 0 0 0 0 0 0 0 0 0 0 0 0 0 0 0 0 0.25 0"/>
<feBlend mode="normal" in2="shape" result="effect3_innerShadow"/>
</filter>
<filter id="filter3_dd" x="115" y="184" width="202" height="29" filterUnits="userSpaceOnUse" color-interpolation-filters="sRGB">
<feFlood flood-opacity="0" result="BackgroundImageFix"/>
<feColorMatrix in="SourceAlpha" type="matrix" values="0 0 0 0 0 0 0 0 0 0 0 0 0 0 0 0 0 0 127 0"/>
<feOffset dy="4"/>
<feGaussianBlur stdDeviation="2"/>
<feColorMatrix type="matrix" values="0 0 0 0 0 0 0 0 0 0 0 0 0 0 0 0 0 0 0.25 0"/>
<feBlend mode="normal" in2="BackgroundImageFix" result="effect1_dropShadow"/>
<feColorMatrix in="SourceAlpha" type="matrix" values="0 0 0 0 0 0 0 0 0 0 0 0 0 0 0 0 0 0 127 0"/>
<feOffset dy="4"/>
<feGaussianBlur stdDeviation="2"/>
<feColorMatrix type="matrix" values="0 0 0 0 0 0 0 0 0 0 0 0 0 0 0 0 0 0 0.25 0"/>
<feBlend mode="normal" in2="effect1_dropShadow" result="effect2_dropShadow"/>
<feBlend mode="normal" in="SourceGraphic" in2="effect2_dropShadow" result="shape"/>
</filter>
<filter id="filter4_dd" x="115" y="238" width="202" height="29" filterUnits="userSpaceOnUse" color-interpolation-filters="sRGB">
<feFlood flood-opacity="0" result="BackgroundImageFix"/>
<feColorMatrix in="SourceAlpha" type="matrix" values="0 0 0 0 0 0 0 0 0 0 0 0 0 0 0 0 0 0 127 0"/>
<feOffset dy="4"/>
<feGaussianBlur stdDeviation="2"/>
<feColorMatrix type="matrix" values="0 0 0 0 0 0 0 0 0 0 0 0 0 0 0 0 0 0 0.25 0"/>
<feBlend mode="normal" in2="BackgroundImageFix" result="effect1_dropShadow"/>
<feColorMatrix in="SourceAlpha" type="matrix" values="0 0 0 0 0 0 0 0 0 0 0 0 0 0 0 0 0 0 127 0"/>
<feOffset dy="4"/>
<feGaussianBlur stdDeviation="2"/>
<feColorMatrix type="matrix" values="0 0 0 0 0 0 0 0 0 0 0 0 0 0 0 0 0 0 0.25 0"/>
<feBlend mode="normal" in2="effect1_dropShadow" result="effect2_dropShadow"/>
<feBlend mode="normal" in="SourceGraphic" in2="effect2_dropShadow" result="shape"/>
</filter>
<filter id="filter5_dd" x="115" y="211" width="101" height="29" filterUnits="userSpaceOnUse" color-interpolation-filters="sRGB">
<feFlood flood-opacity="0" result="BackgroundImageFix"/>
<feColorMatrix in="SourceAlpha" type="matrix" values="0 0 0 0 0 0 0 0 0 0 0 0 0 0 0 0 0 0 127 0"/>
<feOffset dy="4"/>
<feGaussianBlur stdDeviation="2"/>
<feColorMatrix type="matrix" values="0 0 0 0 0 0 0 0 0 0 0 0 0 0 0 0 0 0 0.25 0"/>
<feBlend mode="normal" in2="BackgroundImageFix" result="effect1_dropShadow"/>
<feColorMatrix in="SourceAlpha" type="matrix" values="0 0 0 0 0 0 0 0 0 0 0 0 0 0 0 0 0 0 127 0"/>
<feOffset dy="4"/>
<feGaussianBlur stdDeviation="2"/>
<feColorMatrix type="matrix" values="0 0 0 0 0 0 0 0 0 0 0 0 0 0 0 0 0 0 0.25 0"/>
<feBlend mode="normal" in2="effect1_dropShadow" result="effect2_dropShadow"/>
<feBlend mode="normal" in="SourceGraphic" in2="effect2_dropShadow" result="shape"/>
</filter>
<filter id="filter6_dd" x="216" y="211" width="55" height="29" filterUnits="userSpaceOnUse" color-interpolation-filters="sRGB">
<feFlood flood-opacity="0" result="BackgroundImageFix"/>
<feColorMatrix in="SourceAlpha" type="matrix" values="0 0 0 0 0 0 0 0 0 0 0 0 0 0 0 0 0 0 127 0"/>
<feOffset dy="4"/>
<feGaussianBlur stdDeviation="2"/>
<feColorMatrix type="matrix" values="0 0 0 0 0 0 0 0 0 0 0 0 0 0 0 0 0 0 0.25 0"/>
<feBlend mode="normal" in2="BackgroundImageFix" result="effect1_dropShadow"/>
<feColorMatrix in="SourceAlpha" type="matrix" values="0 0 0 0 0 0 0 0 0 0 0 0 0 0 0 0 0 0 127 0"/>
<feOffset dy="4"/>
<feGaussianBlur stdDeviation="2"/>
<feColorMatrix type="matrix" values="0 0 0 0 0 0 0 0 0 0 0 0 0 0 0 0 0 0 0.25 0"/>
<feBlend mode="normal" in2="effect1_dropShadow" result="effect2_dropShadow"/>
<feBlend mode="normal" in="SourceGraphic" in2="effect2_dropShadow" result="shape"/>
</filter>
</defs>
</svg>
